<?xml version="1.0"?>
<svg xmlns="http://www.w3.org/2000/svg" xmlns:xlink="http://www.w3.org/1999/xlink" id="Layer_1" data-name="Layer 1" viewBox="0 0 512 512" width="512" height="512"><defs><linearGradient id="linear-gradient" x1="254.5" y1="11.645" x2="254.5" y2="493.27" gradientUnits="userSpaceOnUse"><stop offset="0" stop-color="#00efd1"/><stop offset="1" stop-color="#00acea"/></linearGradient><linearGradient id="linear-gradient-2" x1="256" y1="11.645" x2="256" y2="493.27" xlink:href="#linear-gradient"/></defs><title>Atom</title><path d="M254.5,219.709a42.5,42.5,0,1,0,42.5,42.5A42.546,42.546,0,0,0,254.5,219.709Zm0,69a26.5,26.5,0,1,1,26.5-26.5A26.528,26.528,0,0,1,254.5,288.706Z" style="fill:url(#linear-gradient)"/><path d="M439.5,270.709a42.256,42.256,0,0,0-16.072,3.166q-4.144-5.826-8.71-11.651a286.644,286.644,0,0,0,18.958-27.16c26.148-42.773,31.084-80.136,13.9-105.206s-53.813-33.942-103.138-24.979c-2.6.473-5.224,1-7.864,1.565q-1.539-3.746-3.156-7.371C312.922,53.322,284.9,28.125,254.5,28.125a54.672,54.672,0,0,0-9.247.8,42.466,42.466,0,0,0-63.137,56.761q-5.184,9.765-9.7,20.758c-2.636-.564-5.256-1.091-7.853-1.563-49.325-8.961-85.953-.09-103.138,24.979s-12.249,62.433,13.9,105.206a286.46,286.46,0,0,0,18.963,27.165q-4.223,5.378-8.082,10.761a42.485,42.485,0,0,0-34.269,77.393c-1.959,17.258,1.212,32.1,9.489,44.175,12.816,18.7,36.443,28.384,68.09,28.383a197.058,197.058,0,0,0,35.048-3.4c2.6-.473,5.224-1,7.864-1.565q1.539,3.745,3.156,7.371c20.5,45.751,48.522,70.948,78.917,70.948s58.422-25.2,78.917-70.948q1.622-3.618,3.156-7.371c2.64.565,5.264,1.092,7.864,1.565a197.067,197.067,0,0,0,35.048,3.4c31.643,0,55.275-9.688,68.09-28.383,8.042-11.732,11.27-26.087,9.646-42.738A42.489,42.489,0,0,0,439.5,270.709ZM347.3,120.622c42.129-7.656,73.869-.992,87.081,18.283s7.981,51.281-14.353,87.814a267.41,267.41,0,0,1-15.746,22.859A426.206,426.206,0,0,0,360.721,206.3c-3.422-30.657-9.662-59.406-18.426-84.7C343.97,121.25,345.64,120.923,347.3,120.622ZM307.241,339.147A485.727,485.727,0,0,1,254.5,370.674a485.727,485.727,0,0,1-52.741-31.527c-13.469-9.232-26.261-18.953-38.234-29-1.521-15.558-2.306-31.606-2.306-47.935s.79-32.36,2.306-47.89c12.021-10.112,24.827-19.86,38.234-29.049A485.727,485.727,0,0,1,254.5,153.742a485.727,485.727,0,0,1,52.741,31.527c13.417,9.2,26.221,18.942,38.238,29.049,1.518,15.544,2.3,31.576,2.3,47.89s-.785,32.377-2.306,47.935C333.5,320.194,320.71,329.915,307.241,339.147Zm35.411-6.129a359.862,359.862,0,0,1-16.008,66.11,349.665,349.665,0,0,1-54.3-19.8,507.53,507.53,0,0,0,43.938-26.98Q329.931,342.993,342.652,333.018Zm-106,46.307a349.665,349.665,0,0,1-54.3,19.8,359.862,359.862,0,0,1-16.008-66.11q12.7,9.95,26.365,19.327A507.53,507.53,0,0,0,236.651,379.325Zm-90.4-84.443a386.545,386.545,0,0,1-31.319-32.643,391.433,391.433,0,0,1,31.313-32.628c-.68,10.708-1.029,21.594-1.029,32.6Q145.219,278.749,146.254,294.882Zm20.09-103.458a359.543,359.543,0,0,1,15.984-66.143,349.663,349.663,0,0,1,54.323,19.81,507.53,507.53,0,0,0-43.938,26.98Q179.11,181.4,166.344,191.424Zm106.005-46.333a349.665,349.665,0,0,1,54.3-19.8,359.882,359.882,0,0,1,16.011,66.132q-12.738-9.992-26.368-19.349A507.53,507.53,0,0,0,272.349,145.091Zm90.4,84.511a390.622,390.622,0,0,1,31.319,32.633,386.642,386.642,0,0,1-31.323,32.647q1.023-16.106,1.035-32.674Q363.781,245.7,362.75,229.6ZM214.5,31.709a26.5,26.5,0,1,1-26.5,26.5A26.529,26.529,0,0,1,214.5,31.709ZM194.846,95.87a42.477,42.477,0,0,0,59.745-51.742c23.337.058,46.741,22.46,64.224,61.486q1.034,2.307,2.029,4.675A380.4,380.4,0,0,0,254.5,135.852a380.414,380.414,0,0,0-66.369-25.57Q191.317,102.766,194.846,95.87ZM88.975,226.719C66.641,190.186,61.41,158.179,74.622,138.9s44.952-25.938,87.081-18.282c1.654.3,3.319.627,4.991.967-8.715,25.179-14.965,53.95-18.4,84.694a426.983,426.983,0,0,0-43.572,43.3A267.21,267.21,0,0,1,88.975,226.719ZM72.5,286.709a26.5,26.5,0,1,1-26.5,26.5A26.529,26.529,0,0,1,72.5,286.709Zm89.2,117.085c-42.13,7.655-73.869.991-87.081-18.282-5.537-8.077-7.909-18.178-7.092-30.106a42.468,42.468,0,0,0,32.629-74.424q2.212-3.048,4.555-6.1a422.089,422.089,0,0,0,43.57,43.291c3.424,30.637,9.662,59.368,18.421,84.65C165.03,403.166,163.36,403.493,161.7,403.794ZM318.815,418.8c-17.5,39.077-40.947,61.489-64.315,61.489s-46.81-22.412-64.315-61.489q-1.034-2.307-2.029-4.675A380.4,380.4,0,0,0,254.5,388.564a380.4,380.4,0,0,0,66.344,25.563Q319.845,416.49,318.815,418.8Zm115.563-33.29c-13.212,19.274-44.951,25.937-87.081,18.282-1.657-.3-3.327-.628-5-.97,8.759-25.282,15-54.013,18.421-84.65a421.935,421.935,0,0,0,43.572-43.294q2.97,3.877,5.739,7.754A42.468,42.468,0,0,0,439.5,355.706c.664,0,1.324-.02,1.98-.05C442.245,367.475,439.873,377.5,434.378,385.512Zm5.122-45.806a26.5,26.5,0,1,1,26.5-26.5A26.528,26.528,0,0,1,439.5,339.706Z" style="fill:url(#linear-gradient-2)"/></svg>
