<svg width="93" height="92" viewBox="0 0 93 92" fill="none" xmlns="http://www.w3.org/2000/svg">
<rect x="0.876404" y="0.0691528" width="91.5618" height="91.5618" fill="#F5F5F5"/>
<path fill-rule="evenodd" clip-rule="evenodd" d="M46.634 21.0692C32.4029 21.0692 20.8764 32.5396 20.8764 46.7015C20.8764 58.0438 28.2495 67.6239 38.4881 71.0202C39.776 71.2445 40.259 70.4755 40.259 69.8027C40.259 69.1939 40.2268 67.1753 40.2268 65.0286C33.7552 66.2141 32.0809 63.4586 31.5658 62.0168C31.276 61.2799 30.0203 59.005 28.9256 58.3963C28.0241 57.9156 26.7363 56.7302 28.8934 56.6981C30.9219 56.6661 32.3707 58.5565 32.8537 59.3254C35.1719 63.2023 38.8745 62.1129 40.3556 61.4401C40.5809 59.774 41.2571 58.6526 41.9976 58.0118C36.2666 57.371 30.2779 55.1602 30.2779 45.3558C30.2779 42.5683 31.276 40.2614 32.9181 38.4671C32.6605 37.8263 31.759 35.199 33.1756 31.6745C33.1756 31.6745 35.3328 31.0017 40.259 34.3019C42.3196 33.7251 44.509 33.4368 46.6984 33.4368C48.8878 33.4368 51.0772 33.7251 53.1378 34.3019C58.0639 30.9696 60.2211 31.6745 60.2211 31.6745C61.6378 35.199 60.7362 37.8263 60.4787 38.4671C62.1207 40.2614 63.1188 42.5362 63.1188 45.3558C63.1188 55.1922 57.098 57.371 51.3669 58.0118C52.3006 58.8128 53.1056 60.3507 53.1056 62.7538C53.1056 66.1821 53.0734 68.9376 53.0734 69.8027C53.0734 70.4755 53.5563 71.2765 54.8442 71.0202C65.0184 67.6239 72.3916 58.0118 72.3916 46.7015C72.3916 32.5396 60.865 21.0692 46.634 21.0692Z" fill="#1B1F23"/>
</svg>
